<svg width="231" height="67" viewBox="0 0 231 67" fill="none" xmlns="http://www.w3.org/2000/svg">
<path d="M14.2979 17.501C13.8538 19.6995 12.9193 21.4577 11.4941 22.7754C10.0762 24.0859 8.40039 24.7412 6.4668 24.7412C4.70508 24.7412 3.38379 24.2507 2.50293 23.2695C1.62207 22.2812 1.18164 20.8024 1.18164 18.833C1.18164 16.9782 1.61849 15.0697 2.49219 13.1074C3.37305 11.138 4.50098 9.54818 5.87598 8.33789C6.79264 7.52865 7.76302 7.12402 8.78711 7.12402C9.4388 7.12402 10.2982 7.33887 11.3652 7.76855C12.6686 8.28418 13.3203 8.85352 13.3203 9.47656C13.3203 9.77018 13.2129 10.0316 12.998 10.2607C12.7832 10.4899 12.5254 10.6045 12.2246 10.6045C12.0671 10.6045 11.8451 10.515 11.5586 10.3359C10.4629 9.66992 9.53906 9.33691 8.78711 9.33691C8.25 9.33691 7.68783 9.61621 7.10059 10.1748C6.80697 10.4541 6.38444 10.9626 5.83301 11.7002C4.17871 13.8916 3.35156 16.2692 3.35156 18.833C3.35156 20.1794 3.55924 21.1211 3.97461 21.6582C4.42578 22.2454 5.25651 22.5391 6.4668 22.5391C7.7487 22.5391 8.8623 22.1344 9.80762 21.3252C10.8031 20.4658 11.4977 19.2376 11.8916 17.6406C9.90788 17.7409 8.20703 18.124 6.78906 18.79C6.62435 18.8688 6.46322 18.9082 6.30566 18.9082C5.99056 18.9082 5.72917 18.7865 5.52148 18.543C5.32812 18.321 5.23145 18.0632 5.23145 17.7695C5.23145 17.3757 5.42122 17.0605 5.80078 16.8242C7.34766 15.8789 10.0153 15.4062 13.8037 15.4062C14.1117 15.4062 14.3695 15.5101 14.5771 15.7178C14.7848 15.9255 14.8887 16.1868 14.8887 16.502C14.8887 16.9674 14.6917 17.3005 14.2979 17.501ZM21.7959 24.4941C20.1774 24.4941 18.8669 24.0895 17.8643 23.2803C16.7686 22.3851 16.2207 21.1318 16.2207 19.5205C16.2207 17.6585 16.6719 16.0973 17.5742 14.8369C18.5553 13.4619 19.8659 12.7744 21.5059 12.7744C22.6947 12.7744 23.665 12.9749 24.417 13.376C25.3408 13.8701 25.8027 14.6292 25.8027 15.6533C25.8027 16.3695 25.3981 17.0212 24.5889 17.6084C24.2308 17.8662 23.4717 18.2673 22.3115 18.8115L18.208 20.7559C18.609 21.3503 19.1068 21.7979 19.7012 22.0986C20.3027 22.3994 21.001 22.5498 21.7959 22.5498C22.29 22.5498 22.8701 22.4567 23.5361 22.2705C24.3812 22.0342 24.9255 21.7262 25.1689 21.3467C25.4124 20.96 25.6738 20.7666 25.9531 20.7666C26.2038 20.7666 26.4258 20.8633 26.6191 21.0566C26.8197 21.2428 26.9199 21.4613 26.9199 21.7119C26.9199 22.5068 26.279 23.1908 24.9971 23.7637C23.9014 24.2507 22.8343 24.4941 21.7959 24.4941ZM21.5059 14.708C20.6322 14.708 19.9053 15.0482 19.3252 15.7285C18.7451 16.4017 18.3118 17.4186 18.0254 18.7793L21.3232 17.2109C22.6195 16.5807 23.5433 16.0329 24.0947 15.5674C23.4788 14.9945 22.6159 14.708 21.5059 14.708ZM36.0186 14.8477C35.8682 14.8477 35.6891 14.8405 35.4814 14.8262C35.2809 14.8118 35.1055 14.8047 34.9551 14.8047C34.7904 14.8047 34.3034 14.8584 33.4941 14.9658L33.6982 21.3145L33.709 21.7871L33.7197 22.335C33.7484 23.9033 33.3724 24.6875 32.5918 24.6875C32.3053 24.6875 32.0547 24.5944 31.8398 24.4082C31.6322 24.222 31.5283 23.9893 31.5283 23.71C31.5283 23.4378 31.5391 23.0296 31.5605 22.4854C31.582 21.9411 31.5928 21.5329 31.5928 21.2607L31.3779 14.9873C30.8551 14.9658 30.0602 14.9049 28.9932 14.8047C28.3558 14.7188 28.0371 14.3643 28.0371 13.7412C28.0371 13.4261 28.1338 13.1647 28.3271 12.957C28.5205 12.7493 28.7676 12.6455 29.0684 12.6455L31.3242 12.8281C31.3242 12.4629 31.3063 11.9759 31.2705 11.3672C31.2419 10.7513 31.2275 10.3073 31.2275 10.0352C31.2275 9.73438 31.3314 9.4873 31.5391 9.29395C31.7467 9.09342 32.001 8.99316 32.3018 8.99316C32.9463 8.99316 33.3223 9.51953 33.4297 10.5723C33.4512 10.8372 33.4619 11.1559 33.4619 11.5283L33.4404 12.1514L33.4297 12.8174C34.3177 12.7028 34.8262 12.6455 34.9551 12.6455C35.6999 12.6455 36.1868 12.6813 36.416 12.7529C36.8529 12.8962 37.0713 13.2327 37.0713 13.7627C37.0713 14.0778 36.971 14.3392 36.7705 14.5469C36.5771 14.7474 36.3265 14.8477 36.0186 14.8477ZM55.1182 24.0215C54.9391 24.0215 54.6849 23.9678 54.3555 23.8604C54.0332 23.7458 53.7861 23.6885 53.6143 23.6885C53.249 23.6885 52.7012 23.71 51.9707 23.7529C51.2402 23.7959 50.6888 23.8174 50.3164 23.8174C50.0371 23.8174 49.6217 23.8532 49.0703 23.9248C48.526 23.9964 48.1143 24.0322 47.835 24.0322C47.7562 24.0322 47.6416 24.0179 47.4912 23.9893C47.3408 23.9606 47.2262 23.9463 47.1475 23.9463C46.6533 23.9463 46.3311 23.7064 46.1807 23.2266C46.0947 22.9759 46.0518 22.5462 46.0518 21.9375C46.0518 20.2689 46.5065 18.9261 47.416 17.9092C47.8314 17.4437 48.9521 16.5843 50.7783 15.3311C51.8024 14.6292 52.4863 14.0814 52.8301 13.6875C53.446 13 53.7539 12.1943 53.7539 11.2705C53.7539 10.8122 53.4567 10.404 52.8623 10.0459C52.3395 9.72363 51.8275 9.5625 51.3262 9.5625C50.6673 9.5625 50.0407 9.75228 49.4463 10.1318L47.9102 11.335C47.6022 11.5785 47.3551 11.7002 47.1689 11.7002C46.4313 11.7002 46.0625 11.4066 46.0625 10.8193C46.0625 10.4827 46.1986 10.1927 46.4707 9.94922C47.3086 9.16146 48.0355 8.59212 48.6514 8.24121C49.5179 7.74707 50.4095 7.5 51.3262 7.5C52.4863 7.5 53.5212 7.8151 54.4307 8.44531C55.4476 9.1543 55.9561 10.0638 55.9561 11.1738C55.9561 11.9043 55.8522 12.5775 55.6445 13.1934C55.4368 13.8092 55.1217 14.3714 54.6992 14.8799C54.1621 15.5244 53.2526 16.2441 51.9707 17.0391C50.6243 17.8841 49.7399 18.5251 49.3174 18.9619C48.5225 19.7855 48.1322 20.7845 48.1465 21.959L50.3594 21.7549C51.8776 21.6689 52.9626 21.626 53.6143 21.626C54.1585 21.626 54.6742 21.7191 55.1611 21.9053C55.8057 22.1559 56.1279 22.5033 56.1279 22.9473C56.1279 23.2266 56.0312 23.4772 55.8379 23.6992C55.6445 23.9141 55.4046 24.0215 55.1182 24.0215ZM79.4277 24.8916C78.8405 24.8916 78.4967 24.5801 78.3965 23.957C78.2676 23.1693 78.1387 22.0592 78.0098 20.627L77.6445 17.2969C77.5729 16.8027 77.4512 16.3193 77.2793 15.8467C77.0358 15.2021 76.7708 14.8799 76.4844 14.8799C76.2194 14.8799 75.7253 15.1055 75.002 15.5566C74.3145 15.972 73.8633 16.305 73.6484 16.5557C73.6413 17.2288 73.6592 17.902 73.7021 18.5752L74.0244 21.4434C74.1605 22.5749 74.2285 23.5094 74.2285 24.2471C74.2285 24.5622 74.1283 24.82 73.9277 25.0205C73.7344 25.2282 73.4837 25.332 73.1758 25.332C72.8678 25.332 72.6136 25.2282 72.4131 25.0205C72.2197 24.82 72.123 24.5622 72.123 24.2471C72.123 23.3805 72.0335 22.1022 71.8545 20.4121C71.6826 18.7148 71.5967 17.4329 71.5967 16.5664C71.5967 15.8073 71.4893 15.2165 71.2744 14.7939C70.7731 15.0231 70.2646 15.3955 69.749 15.9111L68.4814 17.3291C68.3669 17.501 68.1842 17.7266 67.9336 18.0059C67.9336 18.4355 67.8942 19.0693 67.8154 19.9072C67.7367 20.7451 67.6973 21.3646 67.6973 21.7656C67.6973 21.9805 67.7295 22.2812 67.7939 22.668C67.8656 23.0547 67.9014 23.334 67.9014 23.5059C67.9014 23.7995 67.7904 24.0465 67.5684 24.2471C67.3535 24.4476 67.0993 24.5479 66.8057 24.5479C65.9964 24.5479 65.5918 23.6276 65.5918 21.7871C65.5918 21.3574 65.6312 20.7165 65.71 19.8643C65.7887 19.012 65.8281 18.3711 65.8281 17.9414C65.8281 17.5618 65.7923 16.9925 65.7207 16.2334C65.6562 15.4743 65.624 14.9014 65.624 14.5146C65.624 12.889 65.9893 12.0762 66.7197 12.0762C66.999 12.0762 67.2533 12.1979 67.4824 12.4414C67.7188 12.6849 67.8369 12.9499 67.8369 13.2363C67.8369 13.3724 67.819 13.5837 67.7832 13.8701C67.7474 14.1566 67.7295 14.375 67.7295 14.5254L67.751 15.6533C68.1234 14.887 68.6712 14.196 69.3945 13.5801C70.1178 12.957 70.7337 12.6455 71.2422 12.6455C72.3665 12.6455 73.14 13.2041 73.5625 14.3213C73.9564 13.7985 74.4255 13.4082 74.9697 13.1504C75.514 12.8854 76.137 12.7529 76.8389 12.7529C78.0348 12.7529 78.8512 13.3975 79.2881 14.6865C79.374 14.9443 79.5208 15.9505 79.7285 17.7051C79.929 18.9368 80.1868 20.9886 80.502 23.8604C80.5234 24.1468 80.4268 24.3903 80.2119 24.5908C79.9971 24.7913 79.7357 24.8916 79.4277 24.8916ZM86.915 24.6338C85.7119 24.6338 84.6771 24.1898 83.8105 23.3018C82.8438 22.3135 82.3353 20.985 82.2852 19.3164C82.2422 17.6979 82.6504 16.2728 83.5098 15.041C84.5124 13.5872 85.9089 12.8604 87.6992 12.8604C89.1315 12.8604 90.2165 13.5156 90.9541 14.8262C91.5413 15.8861 91.8242 17.1608 91.8027 18.6504C91.7812 20.2402 91.3659 21.5973 90.5566 22.7217C89.64 23.9964 88.4261 24.6338 86.915 24.6338ZM87.5596 15.041C86.5068 15.0339 85.6868 15.5352 85.0996 16.5449C84.6341 17.3542 84.4014 18.278 84.4014 19.3164C84.4014 20.3548 84.6842 21.1641 85.25 21.7441C85.7227 22.224 86.2777 22.4639 86.915 22.4639C87.6598 22.4639 88.3008 22.1917 88.8379 21.6475C89.4466 21.0459 89.7689 20.2331 89.8047 19.209C89.9049 16.4375 89.1566 15.0482 87.5596 15.041ZM102.706 24.7627C102.09 24.7627 101.743 24.4261 101.664 23.7529L101.363 21.4004C101.263 20.5625 101.213 19.7783 101.213 19.0479C101.213 18.8473 101.224 18.5072 101.245 18.0273C101.274 17.5475 101.288 17.2074 101.288 17.0068C101.288 15.46 101.002 14.6865 100.429 14.6865C99.6266 14.6865 98.8604 15.1628 98.1299 16.1152C97.471 16.9818 96.9554 18.0775 96.583 19.4023C96.5687 19.6816 96.5365 20.0326 96.4863 20.4551C96.4434 20.8132 96.4219 21.1605 96.4219 21.4971C96.4219 21.7119 96.4434 22.0342 96.4863 22.4639C96.5293 22.8936 96.5508 23.2158 96.5508 23.4307C96.5508 23.7529 96.4505 24.0143 96.25 24.2148C96.0566 24.4154 95.806 24.5156 95.498 24.5156C95.1829 24.5156 94.9287 24.4154 94.7354 24.2148C94.542 24.0143 94.4453 23.7529 94.4453 23.4307C94.4453 23.2158 94.4202 22.8936 94.3701 22.4639C94.3271 22.0342 94.3057 21.7119 94.3057 21.4971C94.3057 20.7594 94.3558 19.7389 94.4561 18.4355C94.5635 17.125 94.6172 16.1009 94.6172 15.3633C94.6172 15.1341 94.6029 14.7939 94.5742 14.3428C94.5527 13.8916 94.542 13.5514 94.542 13.3223C94.542 13.0143 94.6423 12.7637 94.8428 12.5703C95.0505 12.3698 95.3047 12.2695 95.6055 12.2695C96.2643 12.2695 96.626 12.735 96.6904 13.666L96.7227 14.9229C97.9258 13.3187 99.1611 12.5166 100.429 12.5166C101.575 12.5166 102.373 13.0215 102.824 14.0312C103.132 14.7044 103.3 15.6999 103.329 17.0176V18.1025L103.318 19.1016C103.318 19.696 103.394 20.4658 103.544 21.4111C103.701 22.3493 103.78 23.112 103.78 23.6992C103.78 24.0143 103.676 24.2686 103.469 24.4619C103.268 24.6624 103.014 24.7627 102.706 24.7627ZM113.169 14.8477C113.019 14.8477 112.84 14.8405 112.632 14.8262C112.431 14.8118 112.256 14.8047 112.105 14.8047C111.941 14.8047 111.454 14.8584 110.645 14.9658L110.849 21.3145L110.859 21.7871L110.87 22.335C110.899 23.9033 110.523 24.6875 109.742 24.6875C109.456 24.6875 109.205 24.5944 108.99 24.4082C108.783 24.222 108.679 23.9893 108.679 23.71C108.679 23.4378 108.689 23.0296 108.711 22.4854C108.732 21.9411 108.743 21.5329 108.743 21.2607L108.528 14.9873C108.006 14.9658 107.211 14.9049 106.144 14.8047C105.506 14.7188 105.188 14.3643 105.188 13.7412C105.188 13.4261 105.284 13.1647 105.478 12.957C105.671 12.7493 105.918 12.6455 106.219 12.6455L108.475 12.8281C108.475 12.4629 108.457 11.9759 108.421 11.3672C108.392 10.7513 108.378 10.3073 108.378 10.0352C108.378 9.73438 108.482 9.4873 108.689 9.29395C108.897 9.09342 109.151 8.99316 109.452 8.99316C110.097 8.99316 110.473 9.51953 110.58 10.5723C110.602 10.8372 110.612 11.1559 110.612 11.5283L110.591 12.1514L110.58 12.8174C111.468 12.7028 111.977 12.6455 112.105 12.6455C112.85 12.6455 113.337 12.6813 113.566 12.7529C114.003 12.8962 114.222 13.2327 114.222 13.7627C114.222 14.0778 114.121 14.3392 113.921 14.5469C113.728 14.7474 113.477 14.8477 113.169 14.8477ZM125.351 24.666C124.842 24.666 124.509 24.3939 124.352 23.8496C124.187 23.2624 124.036 22.4281 123.9 21.3467C123.771 20.3083 123.707 19.4561 123.707 18.79C123.707 18.6038 123.714 18.321 123.729 17.9414C123.75 17.5618 123.761 17.279 123.761 17.0928C123.761 15.7464 123.424 15.0732 122.751 15.0732C121.841 15.0732 121.029 15.485 120.312 16.3086C119.947 16.7311 119.446 17.5368 118.809 18.7256C118.809 21.4541 118.694 23.069 118.465 23.5703C118.264 24.0143 117.953 24.2363 117.53 24.2363C117.237 24.2363 116.979 24.1361 116.757 23.9355C116.535 23.735 116.424 23.4915 116.424 23.2051C116.424 23.1048 116.456 22.9473 116.521 22.7324C116.578 22.5534 116.617 22.0306 116.639 21.1641L116.671 19.5742L116.703 11.6787C116.753 10.7907 116.778 10.1927 116.778 9.88477C116.778 9.51953 116.743 9.17578 116.671 8.85352C116.606 8.52409 116.574 8.18392 116.574 7.83301C116.574 7.53223 116.678 7.28516 116.886 7.0918C117.093 6.89128 117.348 6.79102 117.648 6.79102C118.236 6.79102 118.579 7.10612 118.68 7.73633C118.794 8.43099 118.852 9.05762 118.852 9.61621C118.852 10.3682 118.826 11.1523 118.776 11.9688C118.733 12.7493 118.715 13.5335 118.723 14.3213L118.733 15.2666C119.321 14.4788 119.947 13.8916 120.613 13.5049C121.286 13.111 121.999 12.9141 122.751 12.9141C123.94 12.9141 124.756 13.3008 125.2 14.0742C125.515 14.6185 125.694 15.5352 125.737 16.8242L125.823 18.876L126.038 21.1104C126.138 21.9482 126.26 22.6859 126.403 23.3232C126.432 23.445 126.446 23.5488 126.446 23.6348C126.446 23.9284 126.339 24.1719 126.124 24.3652C125.909 24.5658 125.651 24.666 125.351 24.666ZM136.329 15.7285C135.935 15.7285 135.66 15.596 135.502 15.3311C135.395 15.1449 135.301 14.7581 135.223 14.1709C134.686 14.307 133.858 14.5576 132.741 14.9229C131.588 15.3812 131.008 15.9469 131.001 16.6201C131.216 16.6989 131.427 16.7562 131.635 16.792C133.282 17.0856 134.507 17.4902 135.309 18.0059C136.476 18.7578 137.06 19.8464 137.06 21.2715C137.06 22.4388 136.555 23.3197 135.545 23.9141C134.707 24.401 133.647 24.6445 132.365 24.6445C131.427 24.6445 130.532 24.487 129.68 24.1719C128.577 23.7708 128.025 23.2122 128.025 22.4961C128.025 22.2096 128.136 21.959 128.358 21.7441C128.588 21.5293 128.845 21.4219 129.132 21.4219C129.354 21.4219 129.64 21.5938 129.991 21.9375C130.163 22.1022 130.55 22.2383 131.151 22.3457C131.631 22.4316 132.036 22.4746 132.365 22.4746C132.967 22.4746 133.497 22.403 133.955 22.2598C134.621 22.0521 134.954 21.7227 134.954 21.2715C134.954 20.2975 134.274 19.6387 132.913 19.2949L131.796 19.0479C130.843 18.8402 130.167 18.5967 129.766 18.3174C129.186 17.9163 128.896 17.3112 128.896 16.502C128.896 15.0052 129.601 13.9382 131.012 13.3008C131.441 13.1074 132.129 12.8783 133.074 12.6133C134.02 12.3411 134.696 12.112 135.104 11.9258C135.398 11.7969 135.717 11.7324 136.061 11.7324C136.368 11.7324 136.619 11.8327 136.812 12.0332C137.013 12.2337 137.113 12.4951 137.113 12.8174C137.113 13.0251 137.156 13.3294 137.242 13.7305C137.335 14.1315 137.382 14.4359 137.382 14.6436C137.382 14.9658 137.282 15.2272 137.081 15.4277C136.888 15.6283 136.637 15.7285 136.329 15.7285ZM153.592 8.89648C151.859 8.89648 150.888 10.0996 150.681 12.5059L150.648 13.1719C151.866 13.0859 152.654 13.043 153.012 13.043C154.15 13.043 154.72 13.401 154.72 14.1172C154.72 14.64 154.44 14.9515 153.882 15.0518C153.638 15.0947 153.352 15.1126 153.022 15.1055C152.7 15.0911 151.877 15.1377 150.552 15.2451L150.466 17.6943C150.466 18.1383 150.48 18.8044 150.509 19.6924C150.537 20.5804 150.552 21.2428 150.552 21.6797C150.552 23.0404 150.473 24.1003 150.315 24.8594C150.194 25.4323 149.861 25.7188 149.316 25.7188C149.023 25.7188 148.772 25.6221 148.564 25.4287C148.357 25.2425 148.253 25.0062 148.253 24.7197C148.253 24.6624 148.26 24.5908 148.274 24.5049C148.425 23.5739 148.5 22.5605 148.5 21.4648L148.468 18.5322V15.417C147.573 15.4886 147.007 15.5244 146.771 15.5244C146.047 15.5244 145.686 15.1771 145.686 14.4824C145.686 13.7734 146.312 13.401 147.565 13.3652L148.597 13.333C148.618 12.932 148.672 12.3877 148.758 11.7002C148.944 10.1104 149.345 8.93945 149.961 8.1875C150.706 7.27799 151.869 6.82324 153.452 6.82324C154.476 6.82324 154.988 7.17057 154.988 7.86523C154.988 8.55273 154.523 8.89648 153.592 8.89648ZM161.595 24.6338C160.392 24.6338 159.357 24.1898 158.49 23.3018C157.523 22.3135 157.015 20.985 156.965 19.3164C156.922 17.6979 157.33 16.2728 158.189 15.041C159.192 13.5872 160.589 12.8604 162.379 12.8604C163.811 12.8604 164.896 13.5156 165.634 14.8262C166.221 15.8861 166.504 17.1608 166.482 18.6504C166.461 20.2402 166.046 21.5973 165.236 22.7217C164.32 23.9964 163.106 24.6338 161.595 24.6338ZM162.239 15.041C161.187 15.0339 160.367 15.5352 159.779 16.5449C159.314 17.3542 159.081 18.278 159.081 19.3164C159.081 20.3548 159.364 21.1641 159.93 21.7441C160.402 22.224 160.957 22.4639 161.595 22.4639C162.34 22.4639 162.98 22.1917 163.518 21.6475C164.126 21.0459 164.449 20.2331 164.484 19.209C164.585 16.4375 163.836 15.0482 162.239 15.041ZM177.504 16.0615C177.454 16.9567 177.096 17.4043 176.43 17.4043C175.814 17.4043 175.506 17.0498 175.506 16.3408C175.506 16.2048 175.495 15.9541 175.474 15.5889L175.441 14.6865C174.31 14.8226 173.404 15.1413 172.724 15.6426C172.086 16.1081 171.556 16.8099 171.134 17.748L171.155 23.6348C171.155 24.3581 170.801 24.7197 170.092 24.7197C169.462 24.7197 169.146 24.3581 169.146 23.6348V16.0938C169.146 15.8574 169.154 15.5029 169.168 15.0303C169.189 14.5576 169.2 14.2031 169.2 13.9668C169.2 13.2435 169.515 12.8818 170.146 12.8818C170.847 12.8818 171.202 13.4762 171.209 14.665C172.584 13.3402 174.109 12.6777 175.785 12.6777C176.365 12.6777 176.799 12.8962 177.085 13.333C177.371 13.7699 177.515 14.4287 177.515 15.3096C177.515 15.682 177.511 15.9326 177.504 16.0615ZM193.51 8.89648C191.777 8.89648 190.806 10.0996 190.599 12.5059L190.566 13.1719C191.784 13.0859 192.572 13.043 192.93 13.043C194.068 13.043 194.638 13.401 194.638 14.1172C194.638 14.64 194.358 14.9515 193.8 15.0518C193.556 15.0947 193.27 15.1126 192.94 15.1055C192.618 15.0911 191.795 15.1377 190.47 15.2451L190.384 17.6943C190.384 18.1383 190.398 18.8044 190.427 19.6924C190.455 20.5804 190.47 21.2428 190.47 21.6797C190.47 23.0404 190.391 24.1003 190.233 24.8594C190.112 25.4323 189.779 25.7188 189.234 25.7188C188.941 25.7188 188.69 25.6221 188.482 25.4287C188.275 25.2425 188.171 25.0062 188.171 24.7197C188.171 24.6624 188.178 24.5908 188.192 24.5049C188.343 23.5739 188.418 22.5605 188.418 21.4648L188.386 18.5322V15.417C187.491 15.4886 186.925 15.5244 186.688 15.5244C185.965 15.5244 185.604 15.1771 185.604 14.4824C185.604 13.7734 186.23 13.401 187.483 13.3652L188.515 13.333C188.536 12.932 188.59 12.3877 188.676 11.7002C188.862 10.1104 189.263 8.93945 189.879 8.1875C190.624 7.27799 191.787 6.82324 193.37 6.82324C194.394 6.82324 194.906 7.17057 194.906 7.86523C194.906 8.55273 194.441 8.89648 193.51 8.89648ZM205.842 16.0615C205.792 16.9567 205.434 17.4043 204.768 17.4043C204.152 17.4043 203.844 17.0498 203.844 16.3408C203.844 16.2048 203.833 15.9541 203.812 15.5889L203.779 14.6865C202.648 14.8226 201.742 15.1413 201.062 15.6426C200.424 16.1081 199.894 16.8099 199.472 17.748L199.493 23.6348C199.493 24.3581 199.139 24.7197 198.43 24.7197C197.799 24.7197 197.484 24.3581 197.484 23.6348V16.0938C197.484 15.8574 197.492 15.5029 197.506 15.0303C197.527 14.5576 197.538 14.2031 197.538 13.9668C197.538 13.2435 197.853 12.8818 198.483 12.8818C199.185 12.8818 199.54 13.4762 199.547 14.665C200.922 13.3402 202.447 12.6777 204.123 12.6777C204.703 12.6777 205.136 12.8962 205.423 13.333C205.709 13.7699 205.853 14.4287 205.853 15.3096C205.853 15.682 205.849 15.9326 205.842 16.0615ZM213.071 24.4941C211.453 24.4941 210.142 24.0895 209.14 23.2803C208.044 22.3851 207.496 21.1318 207.496 19.5205C207.496 17.6585 207.947 16.0973 208.85 14.8369C209.831 13.4619 211.141 12.7744 212.781 12.7744C213.97 12.7744 214.94 12.9749 215.692 13.376C216.616 13.8701 217.078 14.6292 217.078 15.6533C217.078 16.3695 216.674 17.0212 215.864 17.6084C215.506 17.8662 214.747 18.2673 213.587 18.8115L209.483 20.7559C209.884 21.3503 210.382 21.7979 210.977 22.0986C211.578 22.3994 212.276 22.5498 213.071 22.5498C213.565 22.5498 214.146 22.4567 214.812 22.2705C215.657 22.0342 216.201 21.7262 216.444 21.3467C216.688 20.96 216.949 20.7666 217.229 20.7666C217.479 20.7666 217.701 20.8633 217.895 21.0566C218.095 21.2428 218.195 21.4613 218.195 21.7119C218.195 22.5068 217.554 23.1908 216.272 23.7637C215.177 24.2507 214.11 24.4941 213.071 24.4941ZM212.781 14.708C211.908 14.708 211.181 15.0482 210.601 15.7285C210.021 16.4017 209.587 17.4186 209.301 18.7793L212.599 17.2109C213.895 16.5807 214.819 16.0329 215.37 15.5674C214.754 14.9945 213.891 14.708 212.781 14.708ZM225.124 24.4941C223.506 24.4941 222.195 24.0895 221.192 23.2803C220.097 22.3851 219.549 21.1318 219.549 19.5205C219.549 17.6585 220 16.0973 220.902 14.8369C221.883 13.4619 223.194 12.7744 224.834 12.7744C226.023 12.7744 226.993 12.9749 227.745 13.376C228.669 13.8701 229.131 14.6292 229.131 15.6533C229.131 16.3695 228.726 17.0212 227.917 17.6084C227.559 17.8662 226.8 18.2673 225.64 18.8115L221.536 20.7559C221.937 21.3503 222.435 21.7979 223.029 22.0986C223.631 22.3994 224.329 22.5498 225.124 22.5498C225.618 22.5498 226.198 22.4567 226.864 22.2705C227.709 22.0342 228.254 21.7262 228.497 21.3467C228.741 20.96 229.002 20.7666 229.281 20.7666C229.532 20.7666 229.754 20.8633 229.947 21.0566C230.148 21.2428 230.248 21.4613 230.248 21.7119C230.248 22.5068 229.607 23.1908 228.325 23.7637C227.229 24.2507 226.162 24.4941 225.124 24.4941ZM224.834 14.708C223.96 14.708 223.233 15.0482 222.653 15.7285C222.073 16.4017 221.64 17.4186 221.354 18.7793L224.651 17.2109C225.948 16.5807 226.871 16.0329 227.423 15.5674C226.807 14.9945 225.944 14.708 224.834 14.708Z" fill="#31BA86"/>
<path d="M30.8121 64.1644C33.6098 64.3659 36.4198 64.0127 39.0806 63.1249C41.7414 62.2372 44.2006 60.8326 46.317 58.9916C48.3997 57.1891 50.1127 54.9994 51.361 52.5441C52.632 50.0482 53.3961 47.3253 53.6093 44.5326L52.2652 42.4486L50.6365 44.3275C50.2658 49.131 48.011 53.593 44.3637 56.7407C42.5447 58.3279 40.429 59.5386 38.139 60.3026C35.849 61.0667 33.4302 61.369 31.0225 61.192C30.6284 61.1641 30.2393 61.2939 29.9408 61.5529C29.6424 61.8119 29.459 62.1788 29.4311 62.573C29.4032 62.9671 29.533 63.3562 29.792 63.6547C30.051 63.9531 30.4179 64.1365 30.8121 64.1644ZM58.7487 47.9197C58.4166 48.1339 58.0131 48.2074 57.6268 48.124C57.2405 48.0407 56.9032 47.8073 56.689 47.4752L52.3821 40.7973L47.1773 46.8017C47.0491 46.9495 46.8931 47.0707 46.7181 47.1582C46.5431 47.2458 46.3526 47.298 46.1574 47.3119C45.9623 47.3259 45.7663 47.3012 45.5806 47.2394C45.395 47.1776 45.2234 47.0798 45.0755 46.9516C44.9277 46.8235 44.8065 46.6674 44.719 46.4924C44.6314 46.3175 44.5792 46.127 44.5653 45.9318C44.5514 45.7366 44.576 45.5406 44.6378 45.355C44.6997 45.1694 44.7974 44.9977 44.9256 44.8499L51.4317 37.3443C51.5832 37.1695 51.7733 37.0324 51.987 36.9439C52.2007 36.8553 52.432 36.8177 52.6628 36.834C52.8935 36.8503 53.1172 36.9202 53.3163 37.038C53.5154 37.1558 53.6843 37.3183 53.8096 37.5127L59.1933 45.8601C59.2993 46.0245 59.3719 46.2082 59.407 46.4007C59.442 46.5932 59.4388 46.7907 59.3975 46.982C59.3563 47.1732 59.2777 47.3545 59.1664 47.5154C59.0551 47.6763 58.9131 47.8137 58.7487 47.9197Z" fill="#31BA86"/>
</svg>
