<svg width="20" height="20" viewBox="0 0 20 20" fill="none" xmlns="http://www.w3.org/2000/svg">
<path d="M13.977 12.5714L19.3374 18.2857L17.7293 20L12.3688 14.2857V13.3829L12.0794 13.0629C10.8186 14.2216 9.20904 14.8584 7.5444 14.8571C5.69622 14.8571 3.92373 14.0745 2.61686 12.6814C1.30999 11.2882 0.575806 9.39875 0.575806 7.42857C0.575806 5.45839 1.30999 3.56891 2.61686 2.17578C3.92373 0.782651 5.69622 0 7.5444 0C9.39259 0 11.1651 0.782651 12.4719 2.17578C13.7788 3.56891 14.513 5.45839 14.513 7.42857C14.513 9.26857 13.8805 10.96 12.8298 12.2629L13.13 12.5714H13.977ZM7.5444 1.71429L6.95475 1.74857C6.69745 2.34286 6.30078 3.34857 6.01131 4.57143H9.0775C8.78803 3.34857 8.39136 2.34286 8.13405 1.74857C7.94108 1.71429 7.7481 1.71429 7.5444 1.71429ZM12.1866 4.57143C11.549 3.3824 10.5279 2.48076 9.31336 2.03429C9.57066 2.64 9.90301 3.52 10.1496 4.57143H12.1866ZM2.90225 4.57143H4.93922C5.1858 3.52 5.51815 2.64 5.77545 2.03429C4.56087 2.48076 3.53981 3.3824 2.90225 4.57143ZM2.18394 7.42857C2.18394 8 2.26971 8.60571 2.43052 9.14286H4.7248L4.59615 7.42857L4.7248 5.71429H2.43052C2.26971 6.25143 2.18394 6.85714 2.18394 7.42857ZM12.6583 9.14286C12.8191 8.60571 12.9049 8 12.9049 7.42857C12.9049 6.85714 12.8191 6.25143 12.6583 5.71429H10.364C10.5347 6.8499 10.5347 8.00724 10.364 9.14286H12.6583ZM5.79689 5.71429L5.66824 7.42857L5.79689 9.14286H9.29191C9.46262 8.00724 9.46262 6.8499 9.29191 5.71429H5.79689ZM7.5444 13.1429C7.73738 13.1429 7.93036 13.1429 8.11261 13.1086C8.38064 12.5143 8.78803 11.5086 9.0775 10.2857H6.01131C6.30078 11.5086 6.70817 12.5143 6.9762 13.1086L7.5444 13.1429ZM12.1866 10.2857H10.1496C9.90301 11.3371 9.57066 12.2171 9.31336 12.8229C10.5279 12.3764 11.549 11.4747 12.1866 10.2857ZM2.90225 10.2857C3.53981 11.4747 4.56087 12.3764 5.77545 12.8229C5.51815 12.2171 5.1858 11.3371 4.93922 10.2857H2.90225Z" fill="white"/>
</svg>
