<svg width="23" height="11" viewBox="0 0 23 11" fill="none" xmlns="http://www.w3.org/2000/svg">
<path d="M6.95163 11C5.36746 11 3.84818 10.4205 2.728 9.38909C1.60782 8.35764 0.978516 6.95869 0.978516 5.5C0.978516 4.04131 1.60782 2.64236 2.728 1.61091C3.84818 0.579462 5.36746 0 6.95163 0H18.3549C19.507 0 20.6119 0.421427 21.4266 1.17157C22.2413 1.92172 22.6989 2.93913 22.6989 4C22.6989 5.06087 22.2413 6.07828 21.4266 6.82843C20.6119 7.57857 19.507 8 18.3549 8H9.12368C8.4036 8 7.71302 7.73661 7.20384 7.26777C6.69467 6.79893 6.40862 6.16304 6.40862 5.5C6.40862 4.83696 6.69467 4.20107 7.20384 3.73223C7.71302 3.26339 8.4036 3 9.12368 3H17.2688V4.5H9.12368C8.83565 4.5 8.55941 4.60536 8.35574 4.79289C8.15208 4.98043 8.03766 5.23478 8.03766 5.5C8.03766 5.76522 8.15208 6.01957 8.35574 6.20711C8.55941 6.39464 8.83565 6.5 9.12368 6.5H18.3549C18.7114 6.5 19.0645 6.43534 19.3939 6.3097C19.7233 6.18406 20.0226 5.99991 20.2747 5.76777C20.5268 5.53562 20.7268 5.26002 20.8632 4.95671C20.9997 4.65339 21.0699 4.3283 21.0699 4C21.0699 3.6717 20.9997 3.34661 20.8632 3.04329C20.7268 2.73998 20.5268 2.46438 20.2747 2.23223C20.0226 2.00009 19.7233 1.81594 19.3939 1.6903C19.0645 1.56466 18.7114 1.5 18.3549 1.5H6.95163C5.79951 1.5 4.69458 1.92143 3.8799 2.67157C3.06523 3.42172 2.60755 4.43913 2.60755 5.5C2.60755 6.56087 3.06523 7.57828 3.8799 8.32843C4.69458 9.07857 5.79951 9.5 6.95163 9.5H17.2688V11H6.95163Z" fill="white"/>
</svg>
