<svg width="12" height="20" viewBox="0 0 12 20" fill="none" xmlns="http://www.w3.org/2000/svg">
<path d="M8.17045 9.11719L3.9517 7.88281C3.46342 7.74219 3.12358 7.28516 3.12358 6.77734C3.12358 6.14062 3.6392 5.625 4.27592 5.625H6.86576C7.34233 5.625 7.81108 5.76953 8.2017 6.03516C8.43998 6.19531 8.7603 6.15625 8.96342 5.95703L10.3228 4.62891C10.6001 4.35938 10.5611 3.91016 10.2525 3.67188C9.29545 2.92188 8.10014 2.50391 6.87358 2.5V0.625C6.87358 0.28125 6.59233 0 6.24858 0H4.99858C4.65483 0 4.37358 0.28125 4.37358 0.625V2.5H4.27592C1.78764 2.5 -0.212361 4.63672 0.0181081 7.17188C0.182171 8.97266 1.55717 10.4375 3.29155 10.9453L7.29545 12.1172C7.78373 12.2617 8.12358 12.7148 8.12358 13.2227C8.12358 13.8594 7.60795 14.375 6.97123 14.375H4.38139C3.90483 14.375 3.43608 14.2305 3.04545 13.9648C2.80717 13.8047 2.48686 13.8438 2.28373 14.043L0.924358 15.3711C0.647014 15.6406 0.686077 16.0898 0.994671 16.3281C1.9517 17.0781 3.14701 17.4961 4.37358 17.5V19.375C4.37358 19.7188 4.65483 20 4.99858 20H6.24858C6.59233 20 6.87358 19.7188 6.87358 19.375V17.4922C8.69389 17.457 10.4009 16.375 11.0025 14.6523C11.8423 12.2461 10.4322 9.77734 8.17045 9.11719Z" fill="white"/>
</svg>
