<svg width="22" height="12" viewBox="0 0 22 12" fill="none" xmlns="http://www.w3.org/2000/svg">
<path d="M20.7099 1.28994C20.617 1.19621 20.5064 1.12182 20.3845 1.07105C20.2627 1.02028 20.132 0.994141 19.9999 0.994141C19.8679 0.994141 19.7372 1.02028 19.6154 1.07105C19.4935 1.12182 19.3829 1.19621 19.2899 1.28994L12.9999 7.58994L8.70994 3.28994C8.61698 3.19621 8.50637 3.12182 8.38452 3.07105C8.26266 3.02028 8.13195 2.99414 7.99994 2.99414C7.86793 2.99414 7.73722 3.02028 7.61536 3.07105C7.4935 3.12182 7.3829 3.19621 7.28994 3.28994L1.28994 9.28994C1.19621 9.3829 1.12182 9.4935 1.07105 9.61536C1.02028 9.73722 0.994141 9.86793 0.994141 9.99994C0.994141 10.132 1.02028 10.2627 1.07105 10.3845C1.12182 10.5064 1.19621 10.617 1.28994 10.7099C1.3829 10.8037 1.4935 10.8781 1.61536 10.9288C1.73722 10.9796 1.86793 11.0057 1.99994 11.0057C2.13195 11.0057 2.26266 10.9796 2.38452 10.9288C2.50637 10.8781 2.61698 10.8037 2.70994 10.7099L7.99994 5.40994L12.2899 9.70994C12.3829 9.80367 12.4935 9.87806 12.6154 9.92883C12.7372 9.9796 12.8679 10.0057 12.9999 10.0057C13.132 10.0057 13.2627 9.9796 13.3845 9.92883C13.5064 9.87806 13.617 9.80367 13.7099 9.70994L20.7099 2.70994C20.8037 2.61698 20.8781 2.50638 20.9288 2.38452C20.9796 2.26266 21.0057 2.13195 21.0057 1.99994C21.0057 1.86793 20.9796 1.73722 20.9288 1.61536C20.8781 1.4935 20.8037 1.3829 20.7099 1.28994Z" fill="white"/>
</svg>
